<svg width="50" height="50" viewBox="0 0 50 50" fill="none" xmlns="http://www.w3.org/2000/svg">
<path d="M37.0853 7.16079C35.104 6.89482 32.4925 6.891 28.817 6.891C28.4337 6.891 28.066 6.7387 27.7949 6.46763C27.5239 6.19651 27.3716 5.82886 27.3716 5.44549C27.3716 5.06213 27.5239 4.69446 27.7949 4.42338C28.066 4.15229 28.4337 4 28.817 4H28.925C32.4674 4 35.2736 4 37.4688 4.29488C39.7277 4.5994 41.5567 5.23927 43.0002 6.68088C44.3186 8.00114 45.0394 9.25581 45.3766 11.1928C45.6812 12.9351 45.6812 15.2825 45.6812 18.7517V18.9368C45.6812 19.3201 45.5289 19.6878 45.2578 19.9589C44.9867 20.23 44.619 20.3823 44.2357 20.3823C43.8523 20.3823 43.4846 20.23 43.2135 19.9589C42.9425 19.6878 42.7902 19.3201 42.7902 18.9368C42.7902 15.2363 42.7844 13.1528 42.53 11.69C42.3025 10.3929 41.894 9.66438 40.9554 8.72579C40.1401 7.91055 39.0223 7.42102 37.0834 7.16079M7.13465 30.5007C7.13465 30.1174 6.98235 29.7497 6.71129 29.4786C6.44016 29.2075 6.07251 29.0552 5.68915 29.0552C5.30578 29.0552 4.93811 29.2075 4.66703 29.4786C4.39594 29.7497 4.24365 30.1174 4.24365 30.5007V30.6857C4.24365 34.155 4.24365 36.5024 4.54817 38.2447C4.88545 40.1817 5.60627 41.4364 6.92453 42.7546C8.36815 44.2002 10.1971 44.8381 12.456 45.1426C14.6531 45.4375 17.4574 45.4375 20.9998 45.4375H21.1078C21.4911 45.4375 21.8588 45.2852 22.1299 45.0141C22.4009 44.7431 22.5532 44.3754 22.5532 43.992C22.5532 43.6086 22.4009 43.241 22.1299 42.9699C21.8588 42.6988 21.4911 42.5465 21.1078 42.5465C17.4323 42.5465 14.8228 42.5427 12.8395 42.2767C10.9025 42.0165 9.78474 41.5269 8.96944 40.7117C8.03085 39.7731 7.6203 39.0446 7.39481 37.7475C7.14045 36.2847 7.13465 34.2012 7.13465 30.5007ZM45.6812 30.5007C45.6812 30.1174 45.5289 29.7497 45.2578 29.4786C44.9867 29.2075 44.619 29.0552 44.2357 29.0552C43.8523 29.0552 43.4846 29.2075 43.2135 29.4786C42.9425 29.7497 42.7902 30.1174 42.7902 30.5007C42.7902 34.2012 42.7844 36.2847 42.53 37.7475C42.3025 39.0446 41.894 39.7731 40.9554 40.7117C40.1401 41.5269 39.0223 42.0165 37.0834 42.2767C35.104 42.5427 32.4925 42.5465 28.817 42.5465C28.4337 42.5465 28.066 42.6988 27.7949 42.9699C27.5239 43.241 27.3716 43.6086 27.3716 43.992C27.3716 44.3754 27.5239 44.7431 27.7949 45.0141C28.066 45.2852 28.4337 45.4375 28.817 45.4375H28.925C32.4674 45.4375 35.2736 45.4375 37.4688 45.1426C39.7277 44.8381 41.5567 44.1982 43.0002 42.7566C44.3186 41.4364 45.0394 40.1817 45.3766 38.2447C45.6812 36.5024 45.6812 34.153 45.6812 30.6857V30.5007ZM21.1078 4H20.9998C17.4574 4 14.6512 4 12.456 4.29488C10.1971 4.5994 8.36815 5.23927 6.92453 6.68088C5.60627 8.00114 4.88545 9.25581 4.54817 11.1928C4.24365 12.9351 4.24365 15.2825 4.24365 18.7517V18.9368C4.24365 19.3201 4.39594 19.6878 4.66703 19.9589C4.93811 20.23 5.30578 20.3823 5.68915 20.3823C6.07251 20.3823 6.44016 20.23 6.71129 19.9589C6.98235 19.6878 7.13465 19.3201 7.13465 18.9368C7.13465 15.2363 7.14045 13.1528 7.39481 11.69C7.62227 10.3929 8.03085 9.66438 8.96944 8.72579C9.78474 7.91055 10.9025 7.42102 12.8414 7.16079C14.8228 6.89482 17.4323 6.891 21.1078 6.891C21.4911 6.891 21.8588 6.7387 22.1299 6.46763C22.4009 6.19651 22.5532 5.82886 22.5532 5.44549C22.5532 5.06213 22.4009 4.69446 22.1299 4.42338C21.8588 4.15229 21.4911 4 21.1078 4Z" fill="#716D8E"/>
<path fill-rule="evenodd" clip-rule="evenodd" d="M24.6536 19.157C23.2605 19.157 21.9245 19.7104 20.9394 20.6955C19.9543 21.6806 19.4009 23.0166 19.4009 24.4097C19.4009 25.8028 19.9543 27.1389 20.9394 28.124C21.9245 29.1091 23.2605 29.6625 24.6536 29.6625C26.0467 29.6625 27.3827 29.1091 28.3679 28.124C29.353 27.1389 29.9063 25.8028 29.9063 24.4097C29.9063 23.0166 29.353 21.6806 28.3679 20.6955C27.3827 19.7104 26.0467 19.157 24.6536 19.157ZM22.266 24.4097C22.266 23.7765 22.5175 23.1692 22.9653 22.7214C23.4131 22.2736 24.0204 22.0221 24.6536 22.0221C25.2868 22.0221 25.8941 22.2736 26.3419 22.7214C26.7897 23.1692 27.0412 23.7765 27.0412 24.4097C27.0412 25.0429 26.7897 25.6502 26.3419 26.098C25.8941 26.5458 25.2868 26.7973 24.6536 26.7973C24.0204 26.7973 23.4131 26.5458 22.9653 26.098C22.5175 25.6502 22.266 25.0429 22.266 24.4097Z" fill="#716D8E"/>
<path fill-rule="evenodd" clip-rule="evenodd" d="M12.1438 19.6138C14.5236 16.8434 18.6124 13.5953 24.6536 13.5953C30.6949 13.5953 34.7836 16.8434 37.1634 19.6138L37.2233 19.6853C37.7293 20.2758 38.2539 20.8833 38.6119 21.6112C39.0129 22.4256 39.1759 23.2982 39.1759 24.4098C39.1759 25.5195 39.0129 26.394 38.6137 27.2084C38.2539 27.9362 37.7311 28.5438 37.2233 29.1343L37.1634 29.2039C34.7836 31.9761 30.6949 35.2242 24.6536 35.2242C18.6124 35.2242 14.5236 31.9761 12.1438 29.2058L12.0839 29.1343C11.578 28.5438 11.0533 27.9362 10.6954 27.2084C10.2944 26.394 10.1313 25.5213 10.1313 24.4098C10.1313 23.3001 10.2944 22.4256 10.6935 21.6112C11.0533 20.8833 11.5761 20.2758 12.0839 19.6853L12.1438 19.6138ZM24.6536 16.4165C19.7235 16.4165 16.345 19.044 14.2725 21.4569C13.686 22.1416 13.3994 22.4895 13.2138 22.8619C13.0583 23.1798 12.9421 23.5935 12.9421 24.4098C12.9421 25.2261 13.0583 25.6398 13.2138 25.9577C13.3994 26.3301 13.686 26.678 14.2725 27.3626C16.345 29.7756 19.7235 32.4031 24.6536 32.4031C29.5837 32.4031 32.9622 29.7756 35.0347 27.3626C35.6231 26.678 35.9079 26.3301 36.0934 25.9577C36.2489 25.6398 36.3651 25.2261 36.3651 24.4098C36.3651 23.5935 36.2489 23.1798 36.0934 22.8619C35.9079 22.4895 35.6212 22.1416 35.0328 21.4569C32.9641 19.044 29.5856 16.4165 24.6536 16.4165Z" fill="#716D8E"/>
</svg>
