<svg width="45" height="45" viewBox="0 0 45 45" fill="none" xmlns="http://www.w3.org/2000/svg">
<path d="M28.0889 42.5751H26.6208C26.6208 42.8477 26.6967 43.1151 26.8401 43.3469C26.9833 43.5789 27.1884 43.7663 27.4323 43.8882C27.6762 44.0102 27.9492 44.0618 28.2207 44.0373C28.4923 44.0128 28.7516 43.9132 28.9698 43.7496L28.0889 42.5751ZM33.9613 38.1708L34.8422 36.9963C34.5881 36.8057 34.279 36.7027 33.9613 36.7027C33.6437 36.7027 33.3346 36.8057 33.0804 36.9963L33.9613 38.1708ZM39.8337 42.5751L38.9529 43.7496C39.171 43.9132 39.4303 44.0128 39.7019 44.0373C39.9735 44.0618 40.2465 44.0102 40.4903 43.8882C40.7341 43.7663 40.9392 43.5789 41.0826 43.3469C41.2259 43.1151 41.3019 42.8477 41.3019 42.5751H39.8337ZM33.9613 32.2984C32.0145 32.2984 30.1474 31.525 28.7708 30.1484C27.3942 28.7717 26.6208 26.9047 26.6208 24.9578H23.6846C23.6846 27.6834 24.7673 30.2973 26.6946 32.2246C28.6218 34.1518 31.2357 35.2346 33.9613 35.2346V32.2984ZM41.3019 24.9578C41.3019 26.9047 40.5285 28.7717 39.1519 30.1484C37.7752 31.525 35.9081 32.2984 33.9613 32.2984V35.2346C36.6869 35.2346 39.3008 34.1518 41.2281 32.2246C43.1553 30.2973 44.2381 27.6834 44.2381 24.9578H41.3019ZM33.9613 17.6173C35.9081 17.6173 37.7752 18.3907 39.1519 19.7673C40.5285 21.1439 41.3019 23.011 41.3019 24.9578H44.2381C44.2381 22.2322 43.1553 19.6184 41.2281 17.6911C39.3008 15.7638 36.6869 14.6811 33.9613 14.6811V17.6173ZM33.9613 14.6811C31.2357 14.6811 28.6218 15.7638 26.6946 17.6911C24.7673 19.6184 23.6846 22.2322 23.6846 24.9578H26.6208C26.6208 23.011 27.3942 21.1439 28.7708 19.7673C30.1474 18.3907 32.0145 17.6173 33.9613 17.6173V14.6811ZM26.6208 30.8303V42.5751H29.557V30.8303H26.6208ZM28.9698 43.7496L34.8422 39.3453L33.0804 36.9963L27.208 41.4006L28.9698 43.7496ZM33.0804 39.3453L38.9529 43.7496L40.7146 41.4006L34.8422 36.9963L33.0804 39.3453ZM41.3019 42.5751V30.8303H38.3656V42.5751H41.3019ZM44.2381 14.6811V4.40432H41.3019V14.6811H44.2381ZM39.8337 0H4.59915V2.93619H39.8337V0ZM0.194824 4.40432V39.6389H3.13102V4.40432H0.194824ZM4.59915 44.0432H23.6846V41.1071H4.59915V44.0432ZM0.194824 39.6389C0.194824 40.807 0.658848 41.9272 1.48479 42.7533C2.31082 43.5792 3.43108 44.0432 4.59915 44.0432V41.1071C4.20979 41.1071 3.83635 40.9523 3.56101 40.6771C3.28574 40.4017 3.13102 40.0283 3.13102 39.6389H0.194824ZM4.59915 0C3.43108 0 2.31082 0.464024 1.48479 1.28997C0.658848 2.11599 0.194824 3.23625 0.194824 4.40432H3.13102C3.13102 4.01497 3.28574 3.64152 3.56101 3.36618C3.83635 3.09091 4.20979 2.93619 4.59915 2.93619V0ZM44.2381 4.40432C44.2381 3.23625 43.7741 2.11599 42.9481 1.28997C42.1221 0.464024 41.0018 0 39.8337 0V2.93619C40.2231 2.93619 40.5965 3.09091 40.8719 3.36618C41.1472 3.64152 41.3019 4.01497 41.3019 4.40432H44.2381ZM9.00347 14.6811H23.6846V11.7448H9.00347V14.6811ZM9.00347 23.4898H17.8121V20.5535H9.00347V23.4898Z" fill="#716D8E"/>
</svg>
