<svg width="54" height="52" viewBox="0 0 54 52" fill="none" xmlns="http://www.w3.org/2000/svg">
<path d="M9.352 23.5493L8.27448 23.8182C7.3132 24.0584 6.45986 24.6131 5.85001 25.394C5.24017 26.175 4.90884 27.1373 4.90869 28.1281V32.2982C4.90884 33.289 5.24017 34.2513 5.85001 35.0322C6.45986 35.8132 7.3132 36.3679 8.27448 36.6082L12.1401 37.5746C12.3365 37.6235 12.5416 37.627 12.7396 37.5849C12.9375 37.5428 13.1233 37.4561 13.2829 37.3315C13.4424 37.2069 13.5714 37.0476 13.6602 36.8657C13.749 36.6837 13.7952 36.484 13.7952 36.2816V24.1448C13.7952 23.9421 13.749 23.7421 13.6601 23.5599C13.5712 23.3778 13.442 23.2183 13.2822 23.0937C13.1224 22.969 12.9363 22.8824 12.738 22.8405C12.5397 22.7986 12.3345 22.8024 12.1379 22.8518L9.352 23.5493ZM9.352 23.5493V22.4385C9.352 17.7248 11.2245 13.2042 14.5576 9.87104C17.8907 6.53791 22.4114 4.66541 27.1251 4.66541C31.8388 4.66541 36.3594 6.53791 39.6926 9.87104C43.0257 13.2042 44.8982 17.7248 44.8982 22.4385V23.5493M44.8982 23.5493L45.9757 23.8182C46.9369 24.0584 47.7903 24.6131 48.4001 25.394C49.01 26.175 49.3413 27.1373 49.3415 28.1281V32.2982C49.3413 33.289 49.01 34.2513 48.4001 35.0322C47.7903 35.8132 46.9369 36.3679 45.9757 36.6082L44.8982 36.8791M44.8982 23.5493L42.1101 22.8518C41.9136 22.8028 41.7086 22.7993 41.5106 22.8414C41.3126 22.8835 41.1268 22.9701 40.9673 23.0948C40.8077 23.2194 40.6787 23.3787 40.5899 23.5606C40.5012 23.7425 40.455 23.9423 40.4549 24.1448V36.2816C40.455 36.484 40.5012 36.6837 40.5899 36.8657C40.6787 37.0476 40.8077 37.2069 40.9673 37.3315C41.1268 37.4561 41.3126 37.5428 41.5106 37.5849C41.7086 37.627 41.9136 37.6235 42.1101 37.5746L44.8982 36.8791M44.8982 36.8791V39.1008C44.8982 40.2793 44.4301 41.4094 43.5968 42.2427C42.7635 43.076 41.6333 43.5441 40.4549 43.5441H33.79M33.79 43.5441C33.79 42.6602 33.4389 41.8127 32.814 41.1877C32.189 40.5627 31.3414 40.2116 30.4575 40.2116H23.7926C22.9088 40.2116 22.0612 40.5627 21.4362 41.1877C20.8113 41.8127 20.4601 42.6602 20.4601 43.5441C20.4601 44.4279 20.8113 45.2755 21.4362 45.9005C22.0612 46.5254 22.9088 46.8765 23.7926 46.8765H30.4575C31.3414 46.8765 32.189 46.5254 32.814 45.9005C33.4389 45.2755 33.79 44.4279 33.79 43.5441Z" stroke="#716D8E" stroke-width="3.33246"/>
</svg>
